{"title":"Overrun! (1970)","uid":8272212,"size":1841646599,"categoryP":"video","categoryS":"movies","magnet":"?xt=urn:btih:cd55bc87802581cc1c47e6545226b4d4fc46e676&amp;dn=Overrun%21+%281970%29&amp;tr=udp%3A%2F%2Ftracker.openbittorrent.com%3A80&amp;tr=udp%3A%2F%2Fopen.demonii.com%3A1337&amp;tr=udp%3A%2F%2Ftracker.coppersurfer.tk%3A6969&amp;tr=udp%3A%2F%2Fexodus.desync.com%3A6969","seeders":0,"leechers":5,"uploader":"RadioResearch","files":3,"time":1363634213,"description":"*******************************************************************************\n                                Overrun! (1970)\n*******************************************************************************\n\n-------------------------------------------------------------------------------\n                              General Information\n-------------------------------------------------------------------------------\nType.................: Movie\n\n\n\nVideo Format.........: AVI\nVideo Bitrate........: 2329\nResolution...........: 684 x 532\nColor................: 8 bit\nFPS..................: 25.000\nSource...............: DVDRip from Video\nOriginal Format......: NTSC\nGenre................: War\nIMDb Rating..........: 3.8\nMovie Information....: http://www.imdb.com/title/tt0064964/\n\n-------------------------------------------------------------------------------\n                               Post Information\n-------------------------------------------------------------------------------\nPosted by............: RadioResearch\nPosted on............: 3/18/2013\n\n-------------------------------------------------------------------------------\n                                 Release Notes\n-------------------------------------------------------------------------------\nSEEDBOX SUPPORTED!\n\nDubbed English with hard-coded Greek subtitles.\n\nOriginal Title:  I Sette di Marsa Matruh\n\nFrom IMDB's fan reviews:\n&quot;If you like Italian war movies of the 60s, you'll enjoy this one. British \nsoldiers are stranded behind enemy lines during a heated desert battle in WW II. \nThey hook up with some beautiful (decidedly un-British looking) nurses and try \nto fight their way back to safety. There's enough desert grit, gunfire, and \nexploding tanks to keep action fans happy.&quot;\n\nAnother one of the rare Macaroni Combat films.  It's an OK film, nothing too \ngreat, but more likely than not, many people have never seen or heard of it.\n\nV=9 to 9.5  A=10\n\nEnjoy!\nRadioResearch\n\nGeneral\nComplete name                            : G:Overrun! (1970)Overrun.avi\nFormat                                   : AVI\nFormat/Info                              : Audio Video Interleave\nFormat profile                           : OpenDML\nFile size                                : 1.72 GiB\nDuration                                 : 1h 45mn\nOverall bit rate                         : 2 329 Kbps\nMovie name                               : Movie\nWriting application                      : MEncoder 5.0\nWriting library                          : [= DigiArty videodll! =]\n\nVideo\nID                                       : 0\nFormat                                   : MPEG-4 Visual\nFormat profile                           : Simple@L1\nFormat settings, BVOP                    : No\nFormat settings, QPel                    : No\nFormat settings, GMC                     : No warppoints\nFormat settings, Matrix                  : Default (H.263)\nCodec ID                                 : DX50\nCodec ID/Hint                            : DivX 5\nDuration                                 : 1h 45mn\nBit rate                                 : 2 068 Kbps\nWidth                                    : 684 pixels\nHeight                                   : 532 pixels\nDisplay aspect ratio                     : 1.286\nFrame rate                               : 25.000 fps\nColor space                              : YUV\nChroma subsampling                       : 4:2:0\nBit depth                                : 8 bits\nScan type                                : Progressive\nCompression mode                         : Lossy\nBits/(Pixel*Frame)                       : 0.227\nStream size                              : 1.52 GiB (89%)\nWriting library                          : Lavc54.71.100\n\nAudio\nID                                       : 1\nFormat                                   : AC-3\nFormat/Info                              : Audio Coding 3\nMode extension                           : CM (complete main)\nFormat settings, Endianness              : Big\nCodec ID                                 : 2000\nDuration                                 : 1h 45mn\nBit rate mode                            : Constant\nBit rate                                 : 256 Kbps\nChannel(s)                               : 2 channels\nChannel positions                        : Front: L R\nSampling rate                            : 48.0 KHz\nBit depth                                : 16 bits\nCompression mode                         : Lossy\nDelay relative to video                  : 16ms\nStream size                              : 193 MiB (11%)\nAlignment                                : Split accross interleaves\nInterleave, duration                     : 500 ms (12.50 video frames)\nInterleave, preload duration             : 500 ms\n\n\n\n\n-------------------------------------------------------------------------------\nGenerated with Cool NFO Creator - http://fly.to/coolbeans\n-------------------------------------------------------------------------------\n","torrent":{"xt":"urn:btih:cd55bc87802581cc1c47e6545226b4d4fc46e676","amp;dn":"Overrun%21+%281970%29","amp;tr":["udp%3A%2F%2Ftracker.openbittorrent.com%3A80","udp%3A%2F%2Fopen.demonii.com%3A1337","udp%3A%2F%2Ftracker.coppersurfer.tk%3A6969","udp%3A%2F%2Fexodus.desync.com%3A6969"],"infoHash":"cd55bc87802581cc1c47e6545226b4d4fc46e676","infoHashBuffer":{"type":"Buffer","data":[205,85,188,135,128,37,129,204,28,71,230,84,82,38,180,212,252,70,230,118]},"announce":[],"urlList":[]}}